<?xml version="1.0" encoding="utf-8"?>
<!-- Generator: Adobe Illustrator 23.0.0, SVG Export Plug-In . SVG Version: 6.00 Build 0)  -->
<svg version="1.1" id="logoipsum" xmlns="http://www.w3.org/2000/svg" xmlns:xlink="http://www.w3.org/1999/xlink" x="0px" y="0px"
	 viewBox="0 0 177.8 100" style="enable-background:new 0 0 177.8 100;" xml:space="preserve">
<title>logoipsum-4</title>
<path d="M43.5,61.5h3.2v13h-3.2V61.5z M48,69.6c0-3.2,2-5.2,5-5.2s5,1.9,5,5.2s-1.9,5.2-5,5.2S48,72.9,48,69.6z M54.8,69.6
	c0-1.8-0.7-2.8-1.8-2.8s-1.8,1-1.8,2.8c0,1.8,0.7,2.8,1.8,2.8S54.9,71.4,54.8,69.6L54.8,69.6z M59.3,75.1h3.1c0.3,0.7,1,1.1,1.7,1
	c1.2,0,1.9-0.7,1.9-1.6v-1.8h0c-0.5,1.1-1.7,1.8-3,1.8c-2.3,0-3.9-1.8-3.9-4.9c0-3.1,1.5-5,4-5c1.3-0.1,2.5,0.7,3,1.9H66v-1.8h3.2
	v9.7c0,2.3-2.1,3.8-5.1,3.8C61.3,78.2,59.5,76.9,59.3,75.1L59.3,75.1z M66,69.6c0-1.6-0.7-2.6-1.9-2.6c-1.1,0-1.8,1-1.8,2.6
	c0,1.6,0.7,2.5,1.8,2.5C65.3,72,66,71.2,66,69.6z M70.5,69.6c0-3.2,2-5.2,5-5.2s5,1.9,5,5.2s-1.9,5.2-5,5.2S70.5,72.9,70.5,69.6
	L70.5,69.6z M77.3,69.6c0-1.8-0.7-2.8-1.8-2.8s-1.8,1-1.8,2.8c0,1.8,0.7,2.8,1.8,2.8S77.3,71.4,77.3,69.6L77.3,69.6z M81.8,62.3
	c0-0.9,0.7-1.7,1.6-1.7c0.9,0,1.7,0.7,1.7,1.6c0,0.9-0.7,1.7-1.6,1.7c0,0,0,0-0.1,0C82.5,63.9,81.8,63.2,81.8,62.3
	C81.8,62.3,81.8,62.3,81.8,62.3L81.8,62.3z M81.8,64.6H85v9.9h-3.2L81.8,64.6z M96.7,69.6c0,3.2-1.4,5.1-3.9,5.1
	c-1.3,0.1-2.5-0.7-3-1.8h-0.1v4.9h-3.2v-13h3.2v1.8h0.1c0.5-1.2,1.7-2,3-1.9C95.3,64.5,96.8,66.4,96.7,69.6L96.7,69.6z M93.4,69.6
	c0-1.6-0.7-2.6-1.9-2.6s-1.8,1-1.8,2.6s0.7,2.6,1.8,2.6S93.5,71.2,93.4,69.6L93.4,69.6z M102.2,64.4c2.7,0,4.4,1.3,4.4,3.3h-2.9
	c0-0.7-0.6-1.2-1.5-1.2s-1.3,0.3-1.3,0.8c0,0.5,0.4,0.7,1.1,0.8l2.1,0.4c2,0.4,2.8,1.2,2.8,2.7c0,2-1.8,3.4-4.6,3.4
	s-4.5-1.3-4.7-3.3h3.1c0.1,0.7,0.7,1.2,1.6,1.2s1.4-0.3,1.4-0.8c0-0.5-0.3-0.6-1.1-0.8l-1.9-0.4c-1.9-0.4-2.9-1.4-2.9-2.9
	C97.9,65.7,99.5,64.4,102.2,64.4L102.2,64.4z M117.6,74.5h-3.1v-1.9h-0.1c-0.4,1.3-1.6,2.1-2.9,2.1c-1.9,0.1-3.5-1.4-3.5-3.3
	c0-0.1,0-0.3,0-0.4v-6.3h3.2v5.6c0,1.2,0.6,1.8,1.6,1.8c0.9,0,1.6-0.7,1.6-1.7c0-0.1,0-0.2,0-0.2v-5.6h3.2L117.6,74.5z M119.1,64.6
	h3.1v1.9h0.1c0.4-1.3,1.5-2.1,2.8-2.1c1.3-0.1,2.5,0.8,2.7,2.1h0.1c0.4-1.3,1.6-2.2,3-2.1c1.7-0.1,3.2,1.3,3.2,3c0,0.1,0,0.2,0,0.4
	v6.7H131v-5.9c0-1-0.5-1.6-1.4-1.6c-0.8,0-1.4,0.6-1.4,1.4c0,0.1,0,0.1,0,0.2v5.8h-3.1v-5.9c0-1-0.5-1.5-1.4-1.5
	c-0.8,0-1.4,0.6-1.4,1.4c0,0.1,0,0.1,0,0.2v5.8h-3.2L119.1,64.6z"/>
<path d="M101.4,31.7c0-5.5-4.4-9.9-9.9-9.9c-2.8,0-5.4,1.2-7.3,3.2H71.7v26.3h26.3V39C100.2,37.2,101.4,34.5,101.4,31.7z M96.3,31.7
	c0,2.7-2.1,4.8-4.8,4.8c-2.7,0-4.8-2.1-4.8-4.8c0-2.7,2.1-4.8,4.8-4.8c0,0,0,0,0,0C94.1,26.9,96.3,29,96.3,31.7z M93,46.3H76.8V30.1
	h4.9c-0.1,0.5-0.1,1.1-0.2,1.6c0,5.5,4.4,9.9,9.9,9.9c0.5,0,1,0,1.5-0.1V46.3z"/>
</svg>
