<?xml version="1.0" encoding="utf-8"?>
<!-- Generator: Adobe Illustrator 23.0.0, SVG Export Plug-In . SVG Version: 6.00 Build 0)  -->
<svg version="1.1" id="logoipsum" xmlns="http://www.w3.org/2000/svg" xmlns:xlink="http://www.w3.org/1999/xlink" x="0px" y="0px"
	 viewBox="0 0 177.8 100" style="enable-background:new 0 0 177.8 100;" xml:space="preserve">
<title>logoipsum-4</title>
<path d="M103.7,45.1c0-5.5-4.4-9.9-9.9-9.9c-2.8,0-5.4,1.2-7.3,3.2H74.1v26.3h26.3V52.5C102.5,50.6,103.7,47.9,103.7,45.1z
	 M98.6,45.1c0,2.7-2.1,4.8-4.8,4.8c-2.7,0-4.8-2.1-4.8-4.8c0-2.7,2.1-4.8,4.8-4.8c0,0,0,0,0,0C96.5,40.3,98.6,42.5,98.6,45.1z
	 M95.3,59.7H79.1V43.5h4.9c-0.1,0.5-0.1,1.1-0.2,1.6c0,5.5,4.4,9.9,9.9,9.9c0.5,0,1,0,1.5-0.1V59.7z"/>
</svg>
