<?xml version="1.0" encoding="utf-8"?>
<!-- Generator: Adobe Illustrator 23.0.0, SVG Export Plug-In . SVG Version: 6.00 Build 0)  -->
<svg version="1.1" id="logoipsum" xmlns="http://www.w3.org/2000/svg" xmlns:xlink="http://www.w3.org/1999/xlink" x="0px" y="0px"
	 viewBox="0 0 177.8 100" style="enable-background:new 0 0 177.8 100;" xml:space="preserve">
<title>logoipsum-4</title>
<path d="M61.5,44.3h3.2v13h-3.2V44.3z M66,52.4c0-3.2,2-5.2,5-5.2s5,1.9,5,5.2s-1.9,5.2-5,5.2S66,55.7,66,52.4z M72.8,52.4
	c0-1.8-0.7-2.8-1.8-2.8s-1.8,1-1.8,2.8s0.7,2.8,1.8,2.8S72.8,54.2,72.8,52.4L72.8,52.4z M77.3,57.9h3.1c0.3,0.7,1,1.1,1.7,1
	c1.2,0,1.9-0.7,1.9-1.6v-1.8h0c-0.5,1.1-1.7,1.8-3,1.8c-2.3,0-3.9-1.8-3.9-4.9s1.5-5,4-5c1.3-0.1,2.5,0.7,3,1.9H84v-1.8h3.2v9.7
	c0,2.3-2.1,3.8-5.1,3.8C79.3,61,77.5,59.7,77.3,57.9L77.3,57.9z M84,52.4c0-1.6-0.7-2.6-1.9-2.6s-1.8,1-1.8,2.6s0.7,2.5,1.8,2.5
	S84,54,84,52.4z M88.4,52.4c0-3.2,2-5.2,5-5.2s5,1.9,5,5.2s-1.9,5.2-5,5.2S88.5,55.7,88.4,52.4L88.4,52.4z M95.3,52.4
	c0-1.8-0.7-2.8-1.8-2.8s-1.8,1-1.8,2.8s0.7,2.8,1.8,2.8S95.3,54.2,95.3,52.4L95.3,52.4z M99.8,45.1c0-0.9,0.7-1.7,1.6-1.7
	c0.9,0,1.7,0.7,1.7,1.6c0,0.9-0.7,1.7-1.6,1.7c0,0,0,0-0.1,0C100.5,46.7,99.8,46,99.8,45.1C99.8,45.1,99.8,45.1,99.8,45.1L99.8,45.1
	z M99.8,47.4h3.3v9.9h-3.2L99.8,47.4z M114.7,52.4c0,3.2-1.4,5.1-3.9,5.1c-1.3,0.1-2.5-0.7-3-1.8h-0.1v4.9h-3.2v-13h3.2v1.8h0.1
	c0.5-1.2,1.7-2,3-1.9C113.3,47.3,114.8,49.2,114.7,52.4L114.7,52.4z M111.4,52.4c0-1.6-0.7-2.6-1.9-2.6s-1.8,1-1.8,2.6
	s0.7,2.6,1.8,2.6S111.5,54,111.4,52.4L111.4,52.4z M120.2,47.2c2.7,0,4.4,1.3,4.4,3.3h-2.9c0-0.7-0.6-1.2-1.5-1.2s-1.3,0.3-1.3,0.8
	s0.4,0.7,1.1,0.8l2.1,0.4c2,0.4,2.8,1.2,2.8,2.7c0,2-1.8,3.4-4.6,3.4s-4.5-1.3-4.7-3.3h3.1c0.1,0.7,0.7,1.2,1.6,1.2s1.4-0.3,1.4-0.8
	s-0.3-0.6-1.1-0.8l-1.9-0.4c-1.9-0.4-2.9-1.4-2.9-2.9C115.8,48.5,117.5,47.2,120.2,47.2L120.2,47.2z M135.6,57.3h-3.1v-1.9h-0.1
	c-0.4,1.3-1.6,2.1-2.9,2c-1.9,0.1-3.5-1.4-3.5-3.3c0-0.1,0-0.3,0-0.4v-6.3h3.2v5.6c0,1.2,0.6,1.8,1.6,1.8c0.9,0,1.6-0.7,1.6-1.7
	c0-0.1,0-0.2,0-0.2v-5.5h3.2L135.6,57.3z M137.1,47.4h3.1v1.9h0.1c0.4-1.3,1.5-2.1,2.8-2.1c1.3-0.1,2.5,0.8,2.7,2.1h0.1
	c0.4-1.3,1.6-2.2,3-2.1c1.7-0.1,3.2,1.3,3.2,3c0,0.1,0,0.2,0,0.4v6.7H149v-5.9c0-1-0.5-1.6-1.4-1.6c-0.8,0-1.4,0.6-1.4,1.4
	c0,0.1,0,0.1,0,0.2v5.8h-3.1v-5.9c0-1-0.5-1.5-1.4-1.5c-0.8,0-1.4,0.6-1.4,1.4c0,0.1,0,0.1,0,0.2v5.8h-3.2L137.1,47.4z"/>
<path d="M55.2,45.1c0-5.5-4.4-9.9-9.9-9.9c-2.8,0-5.4,1.2-7.3,3.2H25.5v26.3h26.3V52.5C54,50.6,55.2,47.9,55.2,45.1z M50.1,45.1
	c0,2.7-2.1,4.8-4.8,4.8c-2.7,0-4.8-2.1-4.8-4.8c0-2.7,2.1-4.8,4.8-4.8c0,0,0,0,0,0C47.9,40.3,50.1,42.5,50.1,45.1z M46.8,59.7H30.6
	V43.5h4.9c-0.1,0.5-0.1,1.1-0.2,1.6c0,5.5,4.4,9.9,9.9,9.9c0.5,0,1,0,1.5-0.1V59.7z"/>
</svg>
