<?xml version="1.0" encoding="utf-8"?>
<!-- Generator: Adobe Illustrator 23.0.0, SVG Export Plug-In . SVG Version: 6.00 Build 0)  -->
<svg version="1.1" id="logoipsum" xmlns="http://www.w3.org/2000/svg" xmlns:xlink="http://www.w3.org/1999/xlink" x="0px" y="0px"
	 viewBox="0 0 177.8 100" style="enable-background:new 0 0 177.8 100;" xml:space="preserve">
<title>logoipsum-4</title>
<path d="M43.5,42.1h3.2v13h-3.2V42.1z M48,50.2c0-3.2,2-5.2,5-5.2s5,1.9,5,5.2s-1.9,5.2-5,5.2S48,53.5,48,50.2z M54.8,50.2
	c0-1.8-0.7-2.8-1.8-2.8s-1.8,1-1.8,2.8S51.9,53,53,53S54.9,52,54.8,50.2L54.8,50.2z M59.3,55.7h3.1c0.3,0.7,1,1.1,1.7,1
	c1.2,0,1.9-0.7,1.9-1.6v-1.8h0c-0.5,1.1-1.7,1.8-3,1.8c-2.3,0-3.9-1.8-3.9-4.9s1.5-5,4-5c1.3-0.1,2.5,0.7,3,1.9H66v-1.8h3.2V55
	c0,2.3-2.1,3.8-5.1,3.8C61.3,58.8,59.5,57.5,59.3,55.7L59.3,55.7z M66,50.2c0-1.6-0.7-2.6-1.9-2.6c-1.1,0-1.8,1-1.8,2.6
	s0.7,2.5,1.8,2.5C65.3,52.7,66,51.8,66,50.2z M70.5,50.2c0-3.2,2-5.2,5-5.2s5,1.9,5,5.2s-1.9,5.2-5,5.2S70.5,53.5,70.5,50.2
	L70.5,50.2z M77.3,50.2c0-1.8-0.7-2.8-1.8-2.8s-1.8,1-1.8,2.8s0.7,2.8,1.8,2.8S77.3,52,77.3,50.2L77.3,50.2z M81.8,42.9
	c0-0.9,0.7-1.7,1.6-1.7c0.9,0,1.7,0.7,1.7,1.6c0,0.9-0.7,1.7-1.6,1.7c0,0,0,0-0.1,0C82.5,44.5,81.8,43.8,81.8,42.9
	C81.8,42.9,81.8,42.9,81.8,42.9L81.8,42.9z M81.8,45.3H85v9.9h-3.2L81.8,45.3z M96.7,50.2c0,3.2-1.4,5.1-3.9,5.1
	c-1.3,0.1-2.5-0.7-3-1.8h-0.1v4.9h-3.2v-13h3.2V47h0.1c0.5-1.2,1.7-2,3-1.9C95.3,45.1,96.8,47,96.7,50.2L96.7,50.2z M93.4,50.2
	c0-1.6-0.7-2.6-1.9-2.6s-1.8,1-1.8,2.6s0.7,2.6,1.8,2.6S93.5,51.8,93.4,50.2L93.4,50.2z M102.2,45c2.7,0,4.4,1.3,4.4,3.3h-2.9
	c0-0.7-0.6-1.2-1.5-1.2s-1.3,0.3-1.3,0.8s0.4,0.7,1.1,0.8l2.1,0.4c2,0.4,2.8,1.2,2.8,2.7c0,2-1.8,3.4-4.6,3.4S97.7,54,97.6,52h3.1
	c0.1,0.7,0.7,1.2,1.6,1.2s1.4-0.3,1.4-0.8s-0.3-0.6-1.1-0.8l-1.9-0.4c-1.9-0.4-2.9-1.4-2.9-2.9C97.9,46.3,99.5,45,102.2,45L102.2,45
	z M117.6,55.1h-3.1v-1.9h-0.1c-0.4,1.3-1.6,2.1-2.9,2c-1.9,0.1-3.5-1.4-3.5-3.3c0-0.1,0-0.3,0-0.4v-6.3h3.2v5.6
	c0,1.2,0.6,1.8,1.6,1.8c0.9,0,1.6-0.7,1.6-1.7c0-0.1,0-0.2,0-0.2v-5.5h3.2L117.6,55.1z M119.1,45.3h3.1v1.9h0.1
	c0.4-1.3,1.5-2.1,2.8-2.1c1.3-0.1,2.5,0.8,2.7,2.1h0.1c0.4-1.3,1.6-2.2,3-2.1c1.7-0.1,3.2,1.3,3.2,3c0,0.1,0,0.2,0,0.4v6.7H131v-5.9
	c0-1-0.5-1.6-1.4-1.6c-0.8,0-1.4,0.6-1.4,1.4c0,0.1,0,0.1,0,0.2v5.8h-3.1v-5.9c0-1-0.5-1.5-1.4-1.5c-0.8,0-1.4,0.6-1.4,1.4
	c0,0.1,0,0.1,0,0.2v5.8h-3.2L119.1,45.3z"/>
</svg>
